# xmcd CD database file
#
# Track frame offsets:
#	150
#	16132
#	32165
#	47657
#	66868
#	77810
#	94145
#	108574
#	119104
#	135254
#	154520
#	169982
#	179183
#
# Disc length: 2524 seconds
#
# Revision: 0
# Processed by: cddbd v1.5.1PL0 Copyright (c) Steve Scherf et al.
# Submitted via: CDex 1.51
#
DISCID=b009da0d
DTITLE=Ivan Johnsen - New Direction
DYEAR=1900
DGENRE=Country
TTITLE0=New Direction
TTITLE1=Nashville City
TTITLE2=On her own
TTITLE3=It always rains in Seatle
TTITLE4=Non-stop-trip (on Highway 39)
TTITLE5=It's over
TTITLE6=I'm gone
TTITLE7=Sad, sad songs
TTITLE8=Pickin' my guitar
TTITLE9=A little bit higher
TTITLE10=My baby and me
TTITLE11=N.D. Rag (instrumental)
TTITLE12=Goodnight my love
EXTD=
EXTT0=
EXTT1=
EXTT2=
EXTT3=
EXTT4=
EXTT5=
EXTT6=
EXTT7=
EXTT8=
EXTT9=
EXTT10=
EXTT11=
EXTT12=
PLAYORDER=
